HIERARCHY
ROOT Hips
{
	OFFSET -3.958830 18.904000 13.208200
	CHANNELS 6 Xposition Yposition Zposition Zrotation Yrotation Xrotation 
	JOINT LHipJoint
	{
		OFFSET 0.000000 0.000000 0.000000
		CHANNELS 3 Zrotation Yrotation Xrotation
		JOINT LeftUpLeg
		{
			OFFSET 1.800000 -1.400000 0.085000
			CHANNELS 3 Zrotation Yrotation Xrotation
			JOINT LeftLeg
			{
				OFFSET 2.215000 -6.000000 0.000000
				CHANNELS 3 Zrotation Yrotation Xrotation
				JOINT LeftFoot
				{
					OFFSET 2.500000 -6.900000 0.000000
					CHANNELS 3 Zrotation Yrotation Xrotation
					JOINT LeftToeBase
					{
						OFFSET 0.200000 -0.500000 1.950000
						CHANNELS 3 Zrotation Yrotation Xrotation
						End Site
						{
							OFFSET 0.000000 0.000000 0.000000
						}
					}
				}
			}
		}
	}
	JOINT RHipJoint
	{
		OFFSET 0.000000 0.000000 0.000000
		CHANNELS 3 Zrotation Yrotation Xrotation
		JOINT RightUpLeg
		{
			OFFSET -1.800000 -1.400000 0.085000
			CHANNELS 3 Zrotation Yrotation Xrotation
			JOINT RightLeg
			{
				OFFSET -2.215000 -6.000000 0.000000
				CHANNELS 3 Zrotation Yrotation Xrotation
				JOINT RightFoot
				{
					OFFSET -2.500000 -6.900000 0.000000
					CHANNELS 3 Zrotation Yrotation Xrotation
					JOINT RightToeBase
					{
						OFFSET -0.200000 -0.500000 1.950000
						CHANNELS 3 Zrotation Yrotation Xrotation
						End Site
						{
							OFFSET 0.000000 0.000000 0.000000
						}
					}
				}
			}
		}
	}
	JOINT LowerBack
	{
		OFFSET 0.000000 0.000000 0.000000
		CHANNELS 3 Zrotation Yrotation Xrotation
		JOINT Spine
		{
			OFFSET -0.087000 1.940000 -0.288900
			CHANNELS 3 Zrotation Yrotation Xrotation
			JOINT Spine1
			{
				OFFSET 0.000000 1.950000 0.060000
				CHANNELS 3 Zrotation Yrotation Xrotation
				JOINT Neck
				{
					OFFSET 0.000000 0.000000 0.000000
					CHANNELS 3 Zrotation Yrotation Xrotation
					JOINT Neck1
					{
						OFFSET 0.000000 1.600000 0.340000
						CHANNELS 3 Zrotation Yrotation Xrotation
						JOINT Head
						{
							OFFSET 0.000000 1.667000 -0.240000
							CHANNELS 3 Zrotation Yrotation Xrotation
							End Site
							{
								OFFSET 0.000000 0.000000 0.000000
							}
						}
					}
				}
				JOINT LeftShoulder
				{
					OFFSET 0.000000 0.000000 0.000000
					CHANNELS 3 Zrotation Yrotation Xrotation
					JOINT LeftArm
					{
						OFFSET 2.700000 1.550000 -0.730000
						CHANNELS 3 Zrotation Yrotation Xrotation
						JOINT LeftForeArm
						{
							OFFSET 5.450000 0.000000 0.000000
							CHANNELS 3 Zrotation Yrotation Xrotation
							JOINT LeftHand
							{
								OFFSET 3.450000 0.000000 0.000000
								CHANNELS 3 Zrotation Yrotation Xrotation
								JOINT LeftHandIndex1
								{
									OFFSET 0.750000 0.000000 0.000000
									CHANNELS 3 Zrotation Yrotation Xrotation
									End Site
									{
										OFFSET 0.000000 0.000000 0.000000
									}
								}
							}
						}
					}
				}
				JOINT RightShoulder
				{
					OFFSET 0.000000 0.000000 0.000000
					CHANNELS 3 Zrotation Yrotation Xrotation
					JOINT RightArm
					{
						OFFSET -2.700000 1.550000 -0.730000
						CHANNELS 3 Zrotation Yrotation Xrotation
						JOINT RightForeArm
						{
							OFFSET -5.450000 0.000000 0.000000
							CHANNELS 3 Zrotation Yrotation Xrotation
							JOINT RightHand
							{
								OFFSET -3.450000 0.000000 0.000000
								CHANNELS 3 Zrotation Yrotation Xrotation
								JOINT RightHandIndex1
								{
									OFFSET -0.750000 0.000000 0.000000
									CHANNELS 3 Zrotation Yrotation Xrotation
									End Site
									{
										OFFSET 0.000000 0.000000 0.000000
									}
								}
							}
						}
					}
				}
			}
		}
	}
}
MOTION
Frames: 13
Frame Time: 0.016667
-0.437150 16.787160 -5.268550 -5.491856 -40.831900 5.399975 -15.296537 12.748356 3.740653 -7.565152 -5.042941 -20.271843 -11.047785 7.643994 22.188939 0.009167 4.435503 3.147294 0.596960 0.380980 0.263860 18.252027 -10.642820 2.812797 4.393937 -0.938228 2.323551 4.188697 -6.719250 25.218954 -0.901775 -5.299812 2.723696 0.131580 0.205350 0.315750 -3.117766 -1.828025 -7.211833 1.130079 3.880642 7.213549 -0.554501 4.383523 -5.340818 -0.005494 -8.609630 -3.997170 -17.701713 10.672145 30.749010 4.375690 4.117180 -11.069930 -8.768079 19.852732 -1.663517 -51.807481 2.654890 -9.569292 5.602254 -48.400690 -3.663091 -3.439310 3.310657 0.458300 0.036020 0.121300 0.377600 8.493838 -11.162596 0.365333 41.608110 -9.659912 -12.511271 -59.725715 38.983704 -16.526490 2.040414 -1.692109 0.034780 0.091400 -0.243930 -0.031600 
-0.373670 16.774760 -5.299830 -4.820025 -41.299958 3.859799 -15.330618 12.603148 3.884317 -6.329755 -5.998173 -22.654882 -12.695471 9.226892 26.878814 0.128393 5.342957 2.796788 0.626620 0.413570 0.297050 18.236583 -10.539489 2.838806 5.105750 -1.021211 2.300084 4.597899 -6.714306 24.428988 -0.907281 -5.231768 2.729286 0.164240 0.188430 0.320060 -3.081983 -1.825471 -7.356606 0.707519 4.314634 8.536775 -0.896611 4.951734 -4.808265 0.072436 -8.404001 -3.863643 -17.569446 10.298752 31.642570 3.809590 3.932090 -11.936700 -9.905351 18.544875 -2.255130 -49.907465 -0.096820 -8.103627 4.447252 -47.044760 -3.111183 -3.466225 3.284510 0.471610 0.034590 0.132490 0.365640 9.332193 -9.985544 0.354878 40.129682 -8.272662 -11.545145 -60.565805 33.099998 -14.234203 2.112059 -1.787359 0.031640 0.105000 -0.240840 -0.049120 
-0.297570 16.767260 -5.342910 -4.519895 -41.619372 2.561932 -15.361531 12.432668 4.135991 -4.535545 -7.199466 -25.644182 -14.407090 11.117052 32.021875 0.310578 6.464014 2.375233 0.659090 0.448450 0.337640 18.224514 -10.394533 2.867804 6.270071 -1.072087 2.077372 4.471127 -6.619911 24.539239 -0.930489 -5.170238 2.733655 0.186530 0.151800 0.318530 -3.063124 -1.885192 -7.617860 0.874706 4.329143 10.719159 -1.660833 5.213482 -4.919098 0.310287 -8.374825 -3.988282 -17.934093 10.307761 32.742649 3.342580 3.985700 -13.241610 -11.198725 17.269965 -2.899247 -47.420974 -2.349457 -6.697969 2.603482 -45.603923 -2.195248 -3.467927 3.251847 0.501670 0.011320 0.162260 0.354490 10.016927 -8.831376 0.634191 38.750773 -7.693865 -11.129071 -60.215216 31.000009 -13.250052 2.130851 -1.798688 0.034050 0.116110 -0.247840 -0.067550 
-0.208640 16.754680 -5.396620 -4.802309 -41.616668 1.773912 -15.376949 12.212886 4.460858 -2.094987 -8.449712 -29.042103 -16.157462 13.125634 36.895911 0.514685 7.665500 1.928672 0.685730 0.478110 0.359260 18.239103 -10.206945 2.904899 8.031045 -1.101107 1.554476 3.844550 -6.419271 25.375132 -0.957031 -5.120709 2.731753 0.203090 0.111410 0.316710 -3.147701 -1.957116 -7.925244 1.984255 3.820097 13.313607 -2.992758 5.101497 -4.984452 0.543474 -8.558382 -4.486409 -18.769731 10.745004 33.462015 3.506420 4.046930 -14.606470 -11.965800 15.745493 -3.307342 -45.245540 -4.495925 -5.432297 0.922671 -43.783280 -1.377380 -3.460761 3.226115 0.535670 -0.020820 0.190720 0.342120 10.154630 -7.483007 1.248178 38.110860 -7.940121 -11.321769 -58.966752 32.096115 -13.530058 2.097359 -1.758623 0.040400 0.117600 -0.246520 -0.082570 
-0.115950 16.739740 -5.453890 -5.329590 -42.181439 1.277191 -15.386649 11.959209 4.795052 0.815946 -9.320621 -32.247574 -18.250604 15.286163 40.790994 0.741835 8.838106 1.526403 0.705080 0.490930 0.389640 18.264805 -10.034243 2.926912 9.622489 -1.061532 1.041769 2.958762 -6.143829 26.353869 -0.986464 -5.084365 2.726319 0.203140 0.082540 0.321930 -3.285670 -1.943491 -8.205353 3.424417 3.256517 15.771207 -4.578243 5.027975 -4.950058 0.902353 -8.664542 -5.116893 -19.343235 11.036393 34.031667 3.459050 4.131250 -15.614650 -12.669932 14.063826 -3.604493 -42.850437 -6.263661 -4.410916 -0.389354 -41.954069 -0.702530 -3.455550 3.194048 0.565020 -0.047260 0.219270 0.333690 9.989173 -6.061114 2.112224 37.801287 -8.842090 -11.966588 -56.647517 36.464148 -14.895905 2.015889 -1.665177 0.048200 0.118430 -0.252550 -0.092200 
-0.015480 16.727120 -5.520520 -5.942773 -42.654579 0.798040 -15.399950 11.742240 5.099961 3.810842 -9.792231 -34.820767 -20.257227 17.318859 43.759989 0.947701 9.839104 1.185536 0.725170 0.512160 0.418440 18.285892 -9.854620 2.950308 11.148560 -0.944985 0.467256 2.004587 -5.855710 27.542872 -1.020940 -5.060567 2.715647 0.203220 0.037160 0.322170 -3.404115 -1.977457 -8.461435 4.761994 2.537872 18.594537 -6.053251 4.926559 -5.026111 1.275304 -8.833305 -5.849043 -20.201433 11.391795 34.630484 3.309790 4.242390 -16.966500 -13.284896 12.259129 -3.845075 -40.351047 -8.099904 -3.404393 -1.814204 -39.628970 -0.031130 -3.441693 3.158434 0.595550 -0.084370 0.255640 0.320620 9.773944 -4.465224 3.087485 37.394627 -10.304466 -12.917122 -54.432079 42.002431 -16.538509 1.911261 -1.548204 0.063000 0.113450 -0.260190 -0.101690 
0.079270 16.711450 -5.588280 -6.299774 -43.299690 0.347803 -15.423156 11.556678 5.349629 6.745647 -9.728816 -36.628758 -22.996446 19.124173 44.533910 1.100187 10.520172 0.956505 0.722680 0.512280 0.429570 18.293455 -9.702782 2.948219 12.072969 -0.835054 0.006771 1.470520 -5.640580 27.882352 -1.025322 -5.000910 2.725061 0.194610 0.004830 0.323180 -3.468877 -2.003448 -8.648338 5.397967 1.954197 21.039662 -7.333577 4.847892 -4.971874 1.684246 -8.815497 -6.534857 -20.453197 11.634553 34.798752 2.700740 4.641040 -17.656250 -13.972067 10.283738 -3.923328 -37.119708 -9.331201 -2.695001 -3.633384 -38.215805 0.762882 -3.442488 3.144747 0.605980 -0.101180 0.274220 0.302650 9.681690 -2.802641 4.057144 37.079342 -12.404984 -14.403095 -51.735070 49.390870 -18.579975 1.756366 -1.404837 0.074010 0.101820 -0.255700 -0.111290 
0.169400 16.698200 -5.660210 -6.052048 -44.939285 -0.585461 -15.467700 11.385218 5.608780 9.602461 -9.309537 -38.161764 -26.256865 21.006794 44.414892 1.240147 11.112444 0.768411 0.722910 0.505250 0.457480 18.276354 -9.589759 2.891075 12.129859 -0.802362 0.167522 0.561764 -5.300037 27.785989 -1.030703 -4.928872 2.736508 0.181570 -0.025470 0.331540 -3.447828 -2.006572 -8.798301 4.933725 1.885463 23.493131 -8.097184 5.134296 -4.880558 2.031054 -8.714600 -7.182874 -20.458046 11.763981 34.967895 1.755180 5.154310 -18.658600 -14.641083 8.236871 -3.839277 -33.576036 -9.948374 -2.299548 -5.594378 -36.932526 1.517221 -3.440624 3.125902 0.629670 -0.117660 0.299440 0.283870 9.777749 -0.853692 4.920150 36.303177 -14.196803 -15.774038 -49.455873 55.338203 -20.229072 1.630904 -1.283948 0.079350 0.093800 -0.255110 -0.126040 
0.249840 16.683640 -5.721670 -5.435829 -46.856493 -1.463829 -15.521554 11.184870 5.896226 12.396796 -8.716489 -39.790238 -29.839770 22.886810 43.756455 1.386842 11.619742 0.616350 0.711880 0.498170 0.459590 18.258550 -9.494925 2.785875 11.706964 -0.755886 0.336438 -0.289456 -4.991390 27.682828 -1.020584 -4.876645 2.756383 0.169330 -0.038730 0.331980 -3.425652 -1.962110 -8.914976 3.961588 1.925315 25.294990 -8.674261 5.307022 -4.762713 2.233019 -8.674031 -7.836852 -20.373425 12.253082 34.627236 1.018840 5.980450 -18.868070 -14.985602 6.385403 -3.407425 -30.297543 -9.438505 -2.317312 -7.441547 -36.606270 2.201051 -3.439588 3.136411 0.628270 -0.118980 0.306670 0.273160 9.910714 1.004482 5.585075 35.608064 -15.501705 -16.845876 -48.280598 59.791298 -21.863981 1.537487 -1.192850 0.085560 0.085770 -0.250890 -0.130930 
0.321910 16.673750 -5.776390 -5.472726 -48.884345 -1.879290 -15.581558 10.973520 6.173704 15.683928 -7.656139 -41.156636 -33.232424 24.493635 42.653824 1.498344 12.001912 0.503882 0.703260 0.492350 0.464950 18.245385 -9.372823 2.706597 11.686984 -0.700314 0.578742 -1.013078 -4.763608 28.039075 -1.030307 -4.890348 2.752013 0.158470 -0.050430 0.333640 -3.431378 -1.911556 -9.032777 3.393374 1.778339 27.089818 -9.103914 5.388734 -4.802314 2.480373 -8.704698 -8.364618 -20.230793 12.801631 33.986861 0.176290 6.936540 -19.214460 -15.480207 4.895534 -2.922054 -27.468509 -8.079618 -2.618675 -9.347216 -37.229810 2.897036 -3.428345 3.161523 0.629680 -0.120640 0.315500 0.265470 10.085376 2.599595 6.047457 34.178938 -16.602740 -17.495574 -46.617076 63.480528 -22.937865 1.483336 -1.139187 0.089430 0.078200 -0.250990 -0.135570 
0.381120 16.660940 -5.826400 -5.591457 -50.940989 -1.885589 -15.668930 10.787504 6.441648 18.869488 -6.399931 -42.483186 -36.031703 25.686608 41.370245 1.559201 12.257412 0.431674 0.687280 0.474030 0.462040 18.217817 -9.213533 2.616381 11.766877 -0.558151 0.540407 -1.721469 -4.527443 28.594890 -1.026274 -4.912981 2.756915 0.147150 -0.044170 0.333800 -3.363491 -1.960953 -9.135589 2.314076 1.700009 28.327105 -8.945645 5.355595 -4.765281 2.736658 -8.751747 -8.765822 -19.804872 13.338860 32.683393 -0.882260 8.054120 -19.363250 -15.650666 3.908299 -2.305700 -25.707353 -5.935361 -3.146275 -10.622054 -38.441059 3.349041 -3.427145 3.189188 0.627470 -0.105530 0.307470 0.261070 10.000723 3.842323 6.281832 32.274326 -17.295197 -17.680800 -44.102434 66.481791 -23.221549 1.454814 -1.138302 0.081130 0.076650 -0.244750 -0.144020 
0.429950 16.652610 -5.871080 -5.497893 -52.755291 -1.864883 -15.764875 10.635373 6.681950 21.646344 -5.141621 -43.674644 -38.110026 26.492120 40.165982 1.633017 12.374685 0.396480 0.701620 0.507970 0.478860 18.184733 -9.061457 2.506226 11.615715 -0.398296 0.351563 -2.268360 -4.319214 29.116139 -1.040819 -4.910323 2.747097 0.146240 -0.063040 0.354000 -3.241671 -2.060712 -9.212234 0.808862 1.991317 28.995146 -8.256896 5.496860 -4.368373 2.797381 -8.768791 -9.031386 -19.435027 13.558181 31.463838 -1.709490 8.822040 -20.192040 -15.152547 3.429773 -1.844888 -25.463282 -4.989389 -3.401258 -11.726309 -38.425032 3.619628 -3.414851 3.228269 0.605560 -0.109120 0.336190 0.265460 9.601267 4.634352 6.427827 31.105483 -17.697659 -17.710864 -40.321386 68.343372 -22.232730 1.491848 -1.216742 0.117620 0.057020 -0.265900 -0.127840 
0.471250 16.651530 -5.907600 -4.850245 -54.681722 -2.141643 -15.842812 10.539309 6.872621 23.794198 -3.956185 -44.507187 -39.614608 26.878627 38.836845 1.674800 12.382377 0.394732 0.715790 0.535660 0.484500 18.155966 -8.968909 2.380712 11.030171 -0.270995 0.226063 -3.061218 -4.020903 29.280767 -1.048078 -4.876842 2.754646 0.140370 -0.072220 0.384200 -3.112646 -2.145137 -9.249427 -1.167429 2.413736 29.400427 -7.569796 5.516736 -4.212574 2.882799 -8.719170 -9.363483 -18.860566 13.942256 30.205925 -2.232160 9.682760 -21.060160 -14.716810 2.994648 -1.231944 -25.319373 -3.096197 -3.935947 -13.179679 -39.181655 4.015684 -3.392948 3.284244 0.596020 -0.110230 0.366590 0.281640 9.294838 5.356287 6.608690 30.158421 -17.850943 -17.480940 -33.636220 69.877754 -19.415601 1.558953 -1.371582 0.150770 0.034220 -0.287230 -0.108730 
